<?xml version="1.0" encoding="UTF-8" standalone="no"?>
<!-- Created with Inkscape (http://www.inkscape.org/) -->

<svg
   xmlns:dc="http://purl.org/dc/elements/1.1/"
   xmlns:cc="http://creativecommons.org/ns#"
   xmlns:rdf="http://www.w3.org/1999/02/22-rdf-syntax-ns#"
   xmlns:svg="http://www.w3.org/2000/svg"
   xmlns="http://www.w3.org/2000/svg"
   xmlns:sodipodi="http://sodipodi.sourceforge.net/DTD/sodipodi-0.dtd"
   xmlns:inkscape="http://www.inkscape.org/namespaces/inkscape"
   width="32"
   height="32"
   viewBox="0 0 32 32.000001"
   id="svg2"
   version="1.1"
   inkscape:version="0.91 r13725"
   sodipodi:docname="extension.svg">
  <defs
     id="defs4" />
  <sodipodi:namedview
     id="base"
     pagecolor="#ff00ff"
     bordercolor="#666666"
     borderopacity="1.0"
     inkscape:pageopacity="0"
     inkscape:pageshadow="2"
     inkscape:zoom="11.2"
     inkscape:cx="6.5742855"
     inkscape:cy="12.905573"
     inkscape:document-units="px"
     inkscape:current-layer="layer1"
     showgrid="false"
     units="px"
     inkscape:window-width="1920"
     inkscape:window-height="1031"
     inkscape:window-x="0"
     inkscape:window-y="1"
     inkscape:window-maximized="1"
     showguides="true"
     inkscape:guide-bbox="true" />
  <metadata
     id="metadata7">
    <rdf:RDF>
      <cc:Work
         rdf:about="">
        <dc:format>image/svg+xml</dc:format>
        <dc:type
           rdf:resource="http://purl.org/dc/dcmitype/StillImage" />
        <dc:title></dc:title>
      </cc:Work>
    </rdf:RDF>
  </metadata>
  <g
     inkscape:label="Layer 1"
     inkscape:groupmode="layer"
     id="layer1"
     transform="translate(0,-1020.3622)">
    <path
       style="fill:#020c7e;fill-rule:evenodd;stroke:#ffffff;stroke-width:1px;stroke-linecap:butt;stroke-linejoin:round;stroke-opacity:1;fill-opacity:1"
       d="m 0.5,1022.8622 0,27 9,0 0,-2.5 c 0,0 -3.2496811,-1.7091 -3.2496811,-3.5 0,-1.7909 1.9666851,-3 5.2496811,-3 3.282996,0 5.099242,1.2091 5.099242,3 0,1.7909 -3.099242,3.5 -3.099242,3.5 l 0,2.5 9,0 0,-11 1.491127,0 c 0,0 1.515232,2.8302 3.598668,2.8302 2.083436,0 3.910205,-1.7997 3.910205,-5.3302 0,-3.5305 -1.826769,-5.4658 -3.468263,-5.4658 -1.641494,0 -3.661803,2.9658 -3.661803,2.9658 l -1.869934,0 0,-11 z"
       id="path4263"
       inkscape:connector-curvature="0"
       sodipodi:nodetypes="cccczszccccczzzcccc" />
    <path
       style="fill:#29fd2f;fill-rule:evenodd;stroke:#000000;stroke-width:1px;stroke-linecap:butt;stroke-linejoin:miter;stroke-opacity:1;fill-opacity:1"
       d="m 9.5,1025.8622 4,0 0,4 4,0 0,4 -4,0 0,4 -4,0 0,-4 -4,0 0,-4 4,0 z"
       id="path4238"
       inkscape:connector-curvature="0"
       sodipodi:nodetypes="ccccccccccccc" />
  </g>
</svg>
