<?xml version="1.0" encoding="UTF-8" standalone="no"?>
<!-- Created with Inkscape (http://www.inkscape.org/) -->

<svg
   xmlns:dc="http://purl.org/dc/elements/1.1/"
   xmlns:cc="http://creativecommons.org/ns#"
   xmlns:rdf="http://www.w3.org/1999/02/22-rdf-syntax-ns#"
   xmlns:svg="http://www.w3.org/2000/svg"
   xmlns="http://www.w3.org/2000/svg"
   xmlns:sodipodi="http://sodipodi.sourceforge.net/DTD/sodipodi-0.dtd"
   xmlns:inkscape="http://www.inkscape.org/namespaces/inkscape"
   width="14"
   height="14"
   viewBox="0 0 14 14"
   id="svg2"
   version="1.1"
   inkscape:version="0.91 r13725"
   sodipodi:docname="fx.svg">
  <defs
     id="defs4" />
  <sodipodi:namedview
     id="base"
     pagecolor="#ff00ff"
     bordercolor="#666666"
     borderopacity="1.0"
     inkscape:pageopacity="0"
     inkscape:pageshadow="2"
     inkscape:zoom="1.979899"
     inkscape:cx="-7.2263859"
     inkscape:cy="43.431874"
     inkscape:document-units="px"
     inkscape:current-layer="layer1"
     showgrid="false"
     units="px"
     inkscape:window-width="1920"
     inkscape:window-height="1031"
     inkscape:window-x="0"
     inkscape:window-y="1"
     inkscape:window-maximized="1" />
  <metadata
     id="metadata7">
    <rdf:RDF>
      <cc:Work
         rdf:about="">
        <dc:format>image/svg+xml</dc:format>
        <dc:type
           rdf:resource="http://purl.org/dc/dcmitype/StillImage" />
        <dc:title />
      </cc:Work>
    </rdf:RDF>
  </metadata>
  <g
     inkscape:label="Layer 1"
     inkscape:groupmode="layer"
     id="layer1"
     transform="translate(0,-1038.3622)">
    <g
       style="font-style:normal;font-variant:normal;font-weight:normal;font-stretch:normal;font-size:31.99582291px;line-height:125%;font-family:Aniron;-inkscape-font-specification:'Aniron, Normal';text-align:start;letter-spacing:0px;word-spacing:0px;writing-mode:lr-tb;text-anchor:start;fill:#ffffff;fill-opacity:1;stroke:none;stroke-width:1px;stroke-linecap:butt;stroke-linejoin:miter;stroke-opacity:1"
       id="text4136"
       transform="matrix(0.98369893,0,0,1,0.38934497,-0.02537143)">
      <path
         sodipodi:type="inkscape:offset"
         inkscape:radius="0.20479125"
         inkscape:original="M 8.8671875 1039.6641 C 8.057108 1039.6641 7.1507578 1039.6726 6.6386719 1040.2715 C 6.126586 1040.8675 6.0631375 1041.992 5.9589844 1043.0625 L 5.9335938 1043.3145 L 4.5625 1043.3145 L 4.0683594 1043.8164 L 5.8808594 1043.8164 L 5.515625 1047.4707 L 5.4042969 1048.5469 C 5.4042969 1049.2601 4.7773047 1050.4863 3.9238281 1050.4863 C 3.7242014 1050.4863 3.5017764 1050.4462 3.2558594 1050.3652 L 2.6777344 1050.8945 C 2.8860405 1050.967 3.0563686 1051.0039 3.1894531 1051.0039 C 3.8548755 1051.0039 4.4550033 1050.7584 4.9902344 1050.2695 C 5.3547701 1049.9368 5.6192341 1049.5631 5.78125 1049.1465 C 5.946159 1048.7299 6.0683694 1048.1237 6.1464844 1047.3281 L 6.4960938 1043.8164 L 7.7910156 1043.8164 L 8.3066406 1043.3125 L 6.5488281 1043.3125 L 6.6132812 1042.6758 C 6.708755 1041.7008 6.8630195 1041.0416 7.0742188 1040.6973 C 7.2854181 1040.353 7.6390985 1040.1797 8.1367188 1040.1797 C 8.3450249 1040.1797 8.558405 1040.2226 8.7753906 1040.3066 L 9.3828125 1039.707 C 9.1918652 1039.678 9.020524 1039.6641 8.8671875 1039.6641 z "
         style="font-style:normal;font-variant:normal;font-weight:500;font-stretch:normal;font-family:'Apple Chancery';-inkscape-font-specification:'Apple Chancery Medium'"
         id="path4151"
         d="m 8.8671875,1039.459 c -0.8115121,0 -1.7957365,-0.01 -2.3847656,0.6797 -0.5896151,0.6862 -0.6229717,1.8395 -0.7265625,2.9043 l -0.00781,0.066 -1.1855469,0 a 0.20481173,0.20481173 0 0 0 -0.1464844,0.061 l -0.4941406,0.502 a 0.20481173,0.20481173 0 0 0 0.1464844,0.3496 l 1.5878906,0 -0.34375,3.4277 -0.1113281,1.0762 a 0.20481173,0.20481173 0 0 0 -0.00195,0.022 c 0,0.2966 -0.1433301,0.7604 -0.3847657,1.123 -0.2414355,0.3627 -0.561962,0.6113 -0.890625,0.6113 -0.1722017,0 -0.3733739,-0.035 -0.6035156,-0.1113 a 0.20481173,0.20481173 0 0 0 -0.203125,0.045 l -0.578125,0.5293 a 0.20481173,0.20481173 0 0 0 0.072266,0.3438 c 0.2206636,0.077 0.4071859,0.1211 0.578125,0.1211 0.7157927,0 1.3731456,-0.2718 1.9394531,-0.7891 0.3838043,-0.3503 0.6674038,-0.75 0.8417969,-1.1972 0.177188,-0.4477 0.2997501,-1.0688 0.3789063,-1.875 l 0.3320312,-3.3262 1.109375,0 a 0.20481173,0.20481173 0 0 0 0.1425782,-0.059 l 0.515625,-0.5039 a 0.20481173,0.20481173 0 0 0 -0.1425782,-0.3516 l -1.53125,0 0.041016,-0.4101 a 0.20481173,0.20481173 0 0 0 0,-0 c 0.094261,-0.9626 0.2581197,-1.6077 0.4316407,-1.8906 0.1739314,-0.2836 0.4385983,-0.4199 0.8886719,-0.4199 0.1801886,0 0.3677283,0.037 0.5644531,0.1132 a 0.20481173,0.20481173 0 0 0 0.21875,-0.045 l 0.6074219,-0.5996 a 0.20481173,0.20481173 0 0 0 -0.1132813,-0.3496 c -0.1993233,-0.03 -0.3811622,-0.045 -0.546875,-0.045 z"
         transform="translate(-1.8526786,0.17857143)" />
    </g>
    <text
       xml:space="preserve"
       style="font-style:normal;font-variant:normal;font-weight:normal;font-stretch:normal;font-size:50.13832855px;line-height:125%;font-family:Aniron;-inkscape-font-specification:'Aniron, Normal';text-align:start;letter-spacing:0px;word-spacing:0px;writing-mode:lr-tb;text-anchor:start;fill:#000000;fill-opacity:1;stroke:none;stroke-width:1px;stroke-linecap:butt;stroke-linejoin:miter;stroke-opacity:1"
       x="6.57195"
       y="1067.6931"
       id="text4153"
       sodipodi:linespacing="125%"
       transform="scale(1.0155331,0.98470447)"><tspan
         sodipodi:role="line"
         id="tspan4155"
         x="6.57195"
         y="1067.6931"
         style="font-style:normal;font-variant:normal;font-weight:normal;font-stretch:normal;font-size:11.14184952px;font-family:sans-serif;-inkscape-font-specification:sans-serif;fill:#ffffff;fill-opacity:1">x</tspan></text>
  </g>
</svg>
